PathFileType	4	(X/Y/Z)	OpenSim_Sub04_EMGStiffKnee_Magnet.trc
DataRate	CameraRate	NumFrames	NumMarkers	Units	OrigDataRate	OrigDataStartFrame	OrigNumFrames
100	100	16	8	m	100	3104	8277
Frame#	Time	torso_imu_offset_imu	pelvis_imu_offset_imu	tibia_r_imu_offset_imu	femur_r_imu_offset_imu	tibia_l_imu_offset_imu	femur_l_imu_offset_imu	toes_r_imu_offset_imu	toes_l_imu_offset_imu
				X1	Y1	Z1	X2	Y2	Z2	X3	Y3	Z3	X4	Y4	Z4	X5	Y5	Z5	X6	Y6	Z6	X7	Y7	Z7	X8		Y8	Z8	

3104	31.03000000	0.93793692	0.16166442	-0.11822245	-0.57781874	0.10799874	-0.72069692	-0.28425129	-0.77021204	-0.16438189	-0.73940625	-0.39405000	0.12280018	-0.72607911	0.34553519	0.18545200	-0.71252415	0.18153436	0.39477969	-0.81689225	-0.35624111	-0.30122678	-0.63549654	-0.35691085	-0.37774455
3105	31.04000000	0.93992697	0.16372142	-0.11874170	-0.57609458	0.11791507	-0.71881236	-0.27358304	-0.77210891	-0.16886335	-0.74001526	-0.39554930	0.11965886	-0.71894940	0.35384704	0.19900923	-0.71348158	0.17736505	0.39358542	-0.82444809	-0.35805617	-0.28934938	-0.63756845	-0.36071702	-0.38573146
3106	31.05000000	0.94127207	0.16806902	-0.11976288	-0.58301293	0.12120847	-0.71652315	-0.25929616	-0.77319020	-0.17139460	-0.74148234	-0.39753278	0.11807715	-0.70906728	0.36062990	0.20814871	-0.71211541	0.17669379	0.39449664	-0.82937563	-0.35701146	-0.27279171	-0.64815329	-0.36254332	-0.37254248
3107	31.06000000	0.93899773	0.16635325	-0.12269564	-0.58840706	0.12329616	-0.71438240	-0.24559882	-0.78045591	-0.16933211	-0.74007051	-0.40055244	0.11350868	-0.69694974	0.36501034	0.21641342	-0.71000103	0.17668239	0.41356138	-0.83409187	-0.36141948	-0.25098566	-0.65556014	-0.35793383	-0.34474125
3108	31.07000000	0.93478549	0.16309884	-0.12971930	-0.59164995	0.12462089	-0.71134825	-0.23194156	-0.78662717	-0.16784745	-0.73820624	-0.39790282	0.10650939	-0.69081738	0.38190272	0.23244273	-0.70663985	0.17715514	0.41204259	-0.84136649	-0.36381460	-0.23059166	-0.65645504	-0.35037497	-0.34743003
3109	31.08000000	0.93590516	0.16666114	-0.12936152	-0.59308801	0.13047776	-0.71207484	-0.21698519	-0.79175477	-0.16711972	-0.74222314	-0.39354754	0.10510825	-0.68870511	0.38520866	0.24047493	-0.70242296	0.17570244	0.40915313	-0.84383678	-0.37009035	-0.20821082	-0.66149082	-0.34710228	-0.33176177
3110	31.09000000	0.93389960	0.16680697	-0.13240435	-0.59236438	0.13642605	-0.70551927	-0.19449091	-0.79586562	-0.16291081	-0.74605669	-0.38898992	0.10220859	-0.67499693	0.38228627	0.24511220	-0.69628457	0.17570023	0.42534252	-0.84554228	-0.37307912	-0.17991244	-0.65986217	-0.34797590	-0.33516552
3111	31.10000000	0.93472718	0.16910297	-0.13395845	-0.59632523	0.13744605	-0.69845397	-0.17524890	-0.79944176	-0.16075968	-0.74596271	-0.38053905	0.10080349	-0.67457081	0.38627615	0.26094829	-0.69291815	0.17719228	0.42606616	-0.84946573	-0.37416418	-0.15392455	-0.66277539	-0.34638087	-0.34185677
3112	31.11000000	0.93259842	0.17289426	-0.13175047	-0.60021572	0.13995975	-0.69936498	-0.16142947	-0.80644810	-0.15932048	-0.75205559	-0.37672562	0.10032006	-0.67509232	0.38532253	0.27029728	-0.69274619	0.17754267	0.42874182	-0.85666154	-0.38130168	-0.12226511	-0.66611879	-0.33815599	-0.33598216
3113	31.12000000	0.92737839	0.17395550	-0.13423742	-0.59991677	0.14038944	-0.69442236	-0.13865984	-0.81143673	-0.15080978	-0.75927167	-0.36835595	0.09468813	-0.66464127	0.39311138	0.27663723	-0.68911083	0.18151468	0.43794605	-0.85169597	-0.38920237	-0.08000626	-0.66332120	-0.33474942	-0.33579060
3114	31.13000000	0.93247291	0.17919598	-0.13205110	-0.60491446	0.14320860	-0.69396397	-0.11818980	-0.81593934	-0.14594765	-0.76237137	-0.35559806	0.08922540	-0.65507922	0.39394508	0.28755343	-0.68429522	0.17711560	0.43647912	-0.84614556	-0.40029572	-0.03762859	-0.65956978	-0.32968435	-0.34301131
3115	31.14000000	0.93351823	0.18198384	-0.13351844	-0.60362539	0.14343642	-0.69424026	-0.09658882	-0.81759903	-0.13890488	-0.77116787	-0.34084254	0.08655662	-0.65147198	0.39737954	0.28851267	-0.68046027	0.18045655	0.44199199	-0.84132815	-0.40975876	0.00862661	-0.65942782	-0.32753345	-0.34605978
3116	31.15000000	0.92955219	0.18463315	-0.13688378	-0.60488262	0.14611436	-0.68587337	-0.07132253	-0.81942654	-0.13092210	-0.77893316	-0.32668664	0.08459860	-0.64802788	0.41024315	0.29399126	-0.67491970	0.18455434	0.44792656	-0.82577196	-0.42380173	0.05710702	-0.66448182	-0.32801723	-0.34684807
3117	31.16000000	0.92569653	0.18342619	-0.13477056	-0.60773376	0.14710601	-0.68723652	-0.05031155	-0.82318157	-0.12228623	-0.78591998	-0.31136428	0.07706422	-0.63959314	0.41840224	0.30068979	-0.67635006	0.18377421	0.45151103	-0.81160924	-0.43751443	0.10498718	-0.66320678	-0.32795825	-0.34064642
3118	31.17000000	0.92708168	0.18597134	-0.13509774	-0.60770485	0.14702199	-0.68899119	-0.03392026	-0.82510319	-0.11030909	-0.79693030	-0.29354749	0.06503016	-0.63246668	0.42563902	0.29777522	-0.67461280	0.19036496	0.45077031	-0.79418669	-0.45455966	0.15334565	-0.66337269	-0.33485078	-0.34699486
3119	31.18000000	0.93140798	0.18892908	-0.13660648	-0.61235661	0.14636641	-0.68637647	-0.01929816	-0.83346854	-0.09928790	-0.80419244	-0.27491302	0.06369228	-0.63074314	0.42872517	0.30303859	-0.66807773	0.19688571	0.45097272	-0.77531660	-0.46906917	0.19437912	-0.66236732	-0.33123474	-0.35291813
